<svg width="420" height="157" viewBox="0 0 420 157" fill="none" xmlns="http://www.w3.org/2000/svg">
<path fill-rule="evenodd" clip-rule="evenodd" d="M420 98.8628H0.679688V96.8628H420V98.8628Z" fill="#BB8067"/>
<path d="M33.7164 7.40399L56.1644 65.272C57.0844 67.6027 58.1271 69.1667 59.2924 69.964C60.4578 70.7 61.5311 71.0987 62.5125 71.16V73C61.2858 72.8773 59.7831 72.816 58.0044 72.816C56.2258 72.7547 54.4471 72.724 52.6684 72.724C50.2764 72.724 48.0378 72.7547 45.9524 72.816C43.8671 72.816 42.1804 72.8773 40.8924 73V71.16C44.0204 71.0373 46.0138 70.516 46.8724 69.596C47.7311 68.6147 47.5471 66.56 46.3204 63.432L29.2084 17.708L30.6804 16.512L14.6724 58.096C13.6911 60.5493 13.1084 62.6347 12.9244 64.352C12.7404 66.008 12.8938 67.3267 13.3844 68.308C13.9364 69.2893 14.8258 69.9947 16.0524 70.424C17.3404 70.8533 18.9351 71.0987 20.8364 71.16V73C19.1191 72.8773 17.3098 72.816 15.4084 72.816C13.5684 72.7547 11.8511 72.724 10.2564 72.724C8.72311 72.724 7.40445 72.7547 6.30045 72.816C5.25778 72.816 4.27645 72.8773 3.35645 73V71.16C4.58311 70.8533 5.84045 70.148 7.12845 69.044C8.41645 67.8787 9.58178 65.916 10.6244 63.156L32.2444 7.40399C32.4898 7.40399 32.7351 7.40399 32.9804 7.40399C33.2258 7.40399 33.4711 7.40399 33.7164 7.40399ZM44.9404 46.504V48.344H17.5244L18.4444 46.504H44.9404Z" fill="#BA7F67"/>
<path d="M90.1017 24.332C95.131 24.332 99.3017 26.4173 102.614 30.588C105.926 34.6973 107.582 40.9533 107.582 49.356C107.582 54.876 106.631 59.5067 104.73 63.248C102.89 66.928 100.406 69.688 97.2777 71.528C94.1497 73.368 90.7457 74.288 87.0657 74.288C83.999 74.288 81.0243 73.4293 78.1417 71.712C75.3203 69.9333 73.2043 67.3267 71.7937 63.892L73.6337 64.904C75.167 67.3573 77.0683 69.1973 79.3377 70.424C81.607 71.5893 83.9377 72.172 86.3297 72.172C90.439 72.172 93.5057 70.332 95.5297 66.652C97.615 62.9107 98.6577 57.1453 98.6577 49.356C98.6577 44.388 98.259 40.248 97.4617 36.936C96.6643 33.624 95.4377 31.1707 93.7817 29.576C92.1257 27.92 90.0097 27.092 87.4337 27.092C84.6123 27.092 81.975 28.38 79.5217 30.956C77.1297 33.4707 75.6577 37.1813 75.1057 42.088L74.0017 40.8C74.6763 35.5867 76.4857 31.5387 79.4297 28.656C82.435 25.7733 85.9923 24.332 90.1017 24.332ZM75.7497 0.963989V68.216C74.9523 68.8907 74.1243 69.596 73.2657 70.332C72.4683 71.0067 71.671 71.6813 70.8737 72.356C70.0763 73.0307 69.2483 73.736 68.3897 74.472L66.8257 73.828C67.071 72.9693 67.2243 72.1107 67.2857 71.252C67.4083 70.332 67.4697 69.412 67.4697 68.492V12.004C67.4697 9.24399 66.979 7.21999 65.9977 5.93199C65.0163 4.58266 63.1763 3.90799 60.4777 3.90799V1.97599C62.4403 2.15999 64.3417 2.25199 66.1817 2.25199C67.9603 2.25199 69.647 2.15999 71.2417 1.97599C72.8977 1.73066 74.4003 1.39332 75.7497 0.963989Z" fill="#BA7F67"/>
<path d="M154.546 24.608V63.064C154.546 65.824 155.036 67.8787 156.018 69.228C157.06 70.516 158.9 71.16 161.538 71.16V73.092C159.636 72.908 157.735 72.816 155.834 72.816C154.055 72.816 152.338 72.908 150.682 73.092C149.087 73.276 147.615 73.6133 146.266 74.104V63.248C144.732 67.2347 142.555 70.0867 139.734 71.804C136.974 73.46 134.122 74.288 131.178 74.288C129.031 74.288 127.16 73.9813 125.566 73.368C123.971 72.7547 122.652 71.896 121.61 70.792C120.444 69.5653 119.647 67.9707 119.218 66.008C118.788 64.0453 118.574 61.6227 118.574 58.74V35.648C118.574 32.888 118.083 30.864 117.102 29.576C116.12 28.2267 114.28 27.552 111.582 27.552V25.62C113.544 25.804 115.446 25.896 117.286 25.896C119.064 25.896 120.751 25.804 122.346 25.62C124.002 25.3747 125.504 25.0373 126.854 24.608V60.764C126.854 62.6653 126.976 64.4133 127.222 66.008C127.467 67.6027 128.08 68.8907 129.062 69.872C130.043 70.8533 131.638 71.344 133.846 71.344C136.238 71.344 138.354 70.608 140.194 69.136C142.095 67.664 143.567 65.6707 144.61 63.156C145.714 60.6413 146.266 57.82 146.266 54.692V35.648C146.266 32.888 145.775 30.864 144.794 29.576C143.812 28.2267 141.972 27.552 139.273 27.552V25.62C141.236 25.804 143.138 25.896 144.978 25.896C146.756 25.896 148.443 25.804 150.038 25.62C151.694 25.3747 153.196 25.0373 154.546 24.608Z" fill="#BA7F67"/>
<path d="M211.777 7.86399C222.755 7.86399 230.913 10.624 236.249 16.144C241.585 21.6027 244.253 29.4533 244.253 39.696C244.253 46.3813 242.934 52.2387 240.297 57.268C237.721 62.236 233.949 66.1 228.981 68.86C224.013 71.62 218.002 73 210.949 73C210.029 73 208.802 72.9693 207.269 72.908C205.735 72.8467 204.141 72.816 202.485 72.816C200.89 72.7547 199.418 72.724 198.069 72.724C195.922 72.724 193.806 72.7547 191.721 72.816C189.635 72.816 187.949 72.8773 186.661 73V71.16C188.746 71.0373 190.31 70.792 191.353 70.424C192.457 70.056 193.193 69.32 193.561 68.216C193.929 67.112 194.113 65.456 194.113 63.248V17.616C194.113 15.3467 193.929 13.6907 193.561 12.648C193.193 11.544 192.457 10.808 191.353 10.44C190.31 10.0107 188.746 9.76533 186.661 9.70399V7.86399C187.949 7.92533 189.635 8.01732 191.721 8.13999C193.806 8.20132 195.861 8.20132 197.885 8.13999C200.031 8.07866 202.454 8.01732 205.153 7.95599C207.851 7.89466 210.059 7.86399 211.777 7.86399ZM209.477 9.51999C206.655 9.51999 204.815 10.0413 203.957 11.084C203.098 12.1267 202.669 14.2427 202.669 17.432V63.432C202.669 66.6213 203.098 68.7373 203.957 69.78C204.877 70.8227 206.747 71.344 209.569 71.344C216.254 71.344 221.437 70.148 225.117 67.756C228.797 65.3027 231.373 61.7453 232.845 57.084C234.317 52.4227 235.053 46.7493 235.053 40.064C235.053 33.1947 234.225 27.5213 232.569 23.044C230.974 18.5053 228.306 15.132 224.565 12.924C220.885 10.6547 215.855 9.51999 209.477 9.51999Z" fill="#BA7F67"/>
<path d="M263.385 0.963989V35.372C264.98 31.2013 267.188 28.3187 270.009 26.724C272.892 25.1293 275.897 24.332 279.025 24.332C281.356 24.332 283.288 24.6387 284.821 25.252C286.416 25.8653 287.734 26.724 288.777 27.828C289.942 29.0547 290.77 30.588 291.261 32.428C291.752 34.268 291.997 36.752 291.997 39.88V64.444C291.997 67.02 292.518 68.768 293.561 69.688C294.665 70.608 296.474 71.068 298.989 71.068V73C297.946 72.9387 296.352 72.8773 294.205 72.816C292.058 72.6933 289.973 72.632 287.949 72.632C285.925 72.632 283.932 72.6933 281.969 72.816C280.068 72.8773 278.626 72.9387 277.645 73V71.068C279.853 71.068 281.417 70.608 282.337 69.688C283.257 68.768 283.717 67.02 283.717 64.444V37.856C283.717 35.9547 283.564 34.2067 283.257 32.612C282.95 31.0173 282.245 29.7293 281.141 28.748C280.098 27.7667 278.473 27.276 276.265 27.276C273.75 27.276 271.512 27.9813 269.549 29.392C267.648 30.8027 266.145 32.7653 265.041 35.28C263.937 37.7947 263.385 40.6773 263.385 43.928V64.444C263.385 67.02 263.845 68.768 264.765 69.688C265.685 70.608 267.249 71.068 269.457 71.068V73C268.476 72.9387 267.004 72.8773 265.041 72.816C263.14 72.6933 261.177 72.632 259.153 72.632C257.129 72.632 255.044 72.6933 252.897 72.816C250.75 72.8773 249.156 72.9387 248.113 73V71.068C250.628 71.068 252.406 70.608 253.449 69.688C254.553 68.768 255.105 67.02 255.105 64.444V12.004C255.105 9.24399 254.614 7.21999 253.633 5.93199C252.652 4.58266 250.812 3.90799 248.113 3.90799V1.97599C250.076 2.15999 251.977 2.25199 253.817 2.25199C255.596 2.25199 257.282 2.15999 258.877 1.97599C260.533 1.73066 262.036 1.39332 263.385 0.963989Z" fill="#BA7F67"/>
<path d="M314.251 73.644C311.736 73.644 309.559 73.184 307.719 72.264C305.879 71.2827 304.468 69.9333 303.487 68.216C302.567 66.4987 302.107 64.5053 302.107 62.236C302.107 59.5373 302.72 57.3293 303.947 55.612C305.235 53.8947 306.86 52.5147 308.823 51.472C310.786 50.4293 312.84 49.5707 314.987 48.896C317.195 48.16 319.28 47.4853 321.243 46.872C323.206 46.1973 324.8 45.4307 326.027 44.572C327.315 43.7133 327.959 42.5787 327.959 41.168V35.464C327.959 32.888 327.56 30.9253 326.763 29.576C326.027 28.2267 325.015 27.3373 323.727 26.908C322.439 26.4173 320.998 26.172 319.403 26.172C317.87 26.172 316.214 26.3867 314.435 26.816C312.718 27.2453 311.338 28.1347 310.295 29.484C311.46 29.7293 312.472 30.3427 313.331 31.324C314.19 32.3053 314.619 33.5627 314.619 35.096C314.619 36.6293 314.128 37.856 313.147 38.776C312.166 39.6347 310.908 40.064 309.375 40.064C307.596 40.064 306.278 39.512 305.419 38.408C304.622 37.2427 304.223 35.9547 304.223 34.544C304.223 32.9493 304.622 31.6613 305.419 30.68C306.216 29.6987 307.228 28.7787 308.455 27.92C309.866 26.9387 311.675 26.1107 313.883 25.436C316.152 24.7 318.698 24.332 321.519 24.332C324.034 24.332 326.18 24.6387 327.959 25.252C329.738 25.804 331.21 26.632 332.375 27.736C333.97 29.208 335.012 31.0173 335.503 33.164C335.994 35.2493 336.239 37.764 336.239 40.708V66.284C336.239 67.8173 336.454 68.9213 336.883 69.596C337.374 70.2707 338.11 70.608 339.091 70.608C339.766 70.608 340.41 70.4547 341.023 70.148C341.636 69.8413 342.372 69.3507 343.231 68.676L344.243 70.24C342.955 71.2213 341.728 72.0493 340.563 72.724C339.398 73.3373 337.834 73.644 335.871 73.644C334.092 73.644 332.62 73.3373 331.455 72.724C330.29 72.1107 329.4 71.2213 328.787 70.056C328.235 68.8293 327.959 67.296 327.959 65.456C326.303 68.216 324.31 70.2707 321.979 71.62C319.71 72.9693 317.134 73.644 314.251 73.644ZM317.563 69.964C319.587 69.964 321.458 69.3813 323.175 68.216C324.954 67.0507 326.548 65.3027 327.959 62.972V44.94C327.223 45.9827 326.15 46.872 324.739 47.608C323.328 48.2827 321.795 48.988 320.139 49.724C318.483 50.3987 316.888 51.2267 315.355 52.208C313.883 53.128 312.656 54.3547 311.675 55.888C310.694 57.4213 310.203 59.4147 310.203 61.868C310.203 64.3213 310.847 66.284 312.135 67.756C313.484 69.228 315.294 69.964 317.563 69.964Z" fill="#BA7F67"/>
<path d="M372.491 24.332C377.521 24.332 381.691 26.4173 385.003 30.588C388.315 34.6973 389.971 40.9533 389.971 49.356C389.971 54.876 389.021 59.5067 387.119 63.248C385.279 66.928 382.795 69.688 379.667 71.528C376.539 73.368 373.135 74.288 369.455 74.288C366.389 74.288 363.414 73.4293 360.531 71.712C357.71 69.9333 355.594 67.3267 354.183 63.892L356.023 64.904C357.557 67.3573 359.458 69.1973 361.727 70.424C363.997 71.5893 366.327 72.172 368.719 72.172C372.829 72.172 375.895 70.332 377.919 66.652C380.005 62.9107 381.047 57.1453 381.047 49.356C381.047 44.388 380.649 40.248 379.851 36.936C379.054 33.624 377.827 31.1707 376.171 29.576C374.515 27.92 372.399 27.092 369.823 27.092C367.002 27.092 364.365 28.38 361.911 30.956C359.519 33.4707 358.047 37.1813 357.495 42.088L356.391 40.8C357.066 35.5867 358.875 31.5387 361.819 28.656C364.825 25.7733 368.382 24.332 372.491 24.332ZM358.139 0.963989V68.216C357.342 68.8907 356.514 69.596 355.655 70.332C354.858 71.0067 354.061 71.6813 353.263 72.356C352.466 73.0307 351.638 73.736 350.779 74.472L349.215 73.828C349.461 72.9693 349.614 72.1107 349.675 71.252C349.798 70.332 349.859 69.412 349.859 68.492V12.004C349.859 9.24399 349.369 7.21999 348.387 5.93199C347.406 4.58266 345.566 3.90799 342.867 3.90799V1.97599C344.83 2.15999 346.731 2.25199 348.571 2.25199C350.35 2.25199 352.037 2.15999 353.631 1.97599C355.287 1.73066 356.79 1.39332 358.139 0.963989Z" fill="#BA7F67"/>
<path d="M405.655 2.61999C407.25 2.61999 408.63 3.20266 409.795 4.36799C410.961 5.53332 411.543 6.91332 411.543 8.50799C411.543 10.1027 410.961 11.4827 409.795 12.648C408.63 13.8133 407.25 14.396 405.655 14.396C404.061 14.396 402.681 13.8133 401.515 12.648C400.35 11.4827 399.767 10.1027 399.767 8.50799C399.767 6.91332 400.35 5.53332 401.515 4.36799C402.681 3.20266 404.061 2.61999 405.655 2.61999ZM410.439 24.608V64.444C410.439 67.02 410.961 68.768 412.003 69.688C413.107 70.608 414.917 71.068 417.431 71.068V73C416.389 72.9387 414.794 72.8773 412.647 72.816C410.562 72.6933 408.446 72.632 406.299 72.632C404.214 72.632 402.098 72.6933 399.951 72.816C397.805 72.8773 396.21 72.9387 395.167 73V71.068C397.682 71.068 399.461 70.608 400.503 69.688C401.607 68.768 402.159 67.02 402.159 64.444V35.648C402.159 32.888 401.669 30.864 400.687 29.576C399.706 28.2267 397.866 27.552 395.167 27.552V25.62C397.13 25.804 399.031 25.896 400.871 25.896C402.65 25.896 404.337 25.804 405.931 25.62C407.587 25.3747 409.09 25.0373 410.439 24.608Z" fill="#BA7F67"/>
<path d="M16.2026 142.896H7.27539V139.293H16.2026C17.9315 139.293 19.3314 139.018 20.4023 138.467C21.4733 137.916 22.2536 137.151 22.7432 136.172C23.248 135.193 23.5005 134.076 23.5005 132.821C23.5005 131.674 23.248 130.595 22.7432 129.585C22.2536 128.576 21.4733 127.765 20.4023 127.153C19.3314 126.526 17.9315 126.212 16.2026 126.212H8.30811V156H3.87891V122.586H16.2026C18.7271 122.586 20.8613 123.022 22.6055 123.894C24.3496 124.766 25.673 125.975 26.5757 127.52C27.4784 129.05 27.9297 130.802 27.9297 132.775C27.9297 134.917 27.4784 136.746 26.5757 138.26C25.673 139.775 24.3496 140.93 22.6055 141.726C20.8613 142.506 18.7271 142.896 16.2026 142.896Z" fill="#BA7F67"/>
<path d="M49.9793 122.586H61.0408C63.5499 122.586 65.6689 122.968 67.3978 123.733C69.1419 124.498 70.4653 125.631 71.368 127.13C72.2859 128.614 72.7449 130.442 72.7449 132.615C72.7449 134.145 72.4313 135.545 71.804 136.814C71.192 138.069 70.3047 139.14 69.1419 140.027C67.9944 140.899 66.6175 141.55 65.011 141.978L63.7718 142.46H53.3758L53.3299 138.857H61.1785C62.7697 138.857 64.0931 138.582 65.1487 138.031C66.2044 137.465 67 136.707 67.5354 135.759C68.0709 134.81 68.3387 133.762 68.3387 132.615C68.3387 131.33 68.0862 130.205 67.5813 129.241C67.0765 128.277 66.2809 127.535 65.1946 127.015C64.1237 126.48 62.7391 126.212 61.0408 126.212H54.4085V156H49.9793V122.586ZM69.5091 156L61.3851 140.854L65.9978 140.831L74.2366 155.725V156H69.5091Z" fill="#BA7F67"/>
<path d="M121.117 138.237V140.349C121.117 142.858 120.804 145.107 120.176 147.096C119.549 149.085 118.646 150.775 117.468 152.167C116.29 153.56 114.875 154.623 113.223 155.357C111.586 156.092 109.75 156.459 107.715 156.459C105.741 156.459 103.928 156.092 102.276 155.357C100.639 154.623 99.2161 153.56 98.0074 152.167C96.8141 150.775 95.8884 149.085 95.2306 147.096C94.5727 145.107 94.2438 142.858 94.2438 140.349V138.237C94.2438 135.728 94.565 133.487 95.2076 131.513C95.8655 129.524 96.7911 127.834 97.9845 126.441C99.1778 125.034 100.593 123.963 102.23 123.229C103.882 122.494 105.695 122.127 107.669 122.127C109.704 122.127 111.54 122.494 113.177 123.229C114.829 123.963 116.244 125.034 117.422 126.441C118.616 127.834 119.526 129.524 120.153 131.513C120.796 133.487 121.117 135.728 121.117 138.237ZM116.734 140.349V138.191C116.734 136.202 116.527 134.443 116.114 132.913C115.717 131.383 115.128 130.098 114.347 129.058C113.567 128.017 112.611 127.229 111.479 126.694C110.362 126.158 109.092 125.891 107.669 125.891C106.292 125.891 105.045 126.158 103.928 126.694C102.827 127.229 101.878 128.017 101.083 129.058C100.302 130.098 99.698 131.383 99.2696 132.913C98.8412 134.443 98.6271 136.202 98.6271 138.191V140.349C98.6271 142.353 98.8412 144.128 99.2696 145.673C99.698 147.203 100.31 148.496 101.106 149.551C101.916 150.592 102.873 151.38 103.974 151.915C105.091 152.451 106.338 152.718 107.715 152.718C109.153 152.718 110.431 152.451 111.547 151.915C112.664 151.38 113.605 150.592 114.37 149.551C115.15 148.496 115.74 147.203 116.137 145.673C116.535 144.128 116.734 142.353 116.734 140.349Z" fill="#BA7F67"/>
<path d="M156.523 142.896H147.596V139.293H156.523C158.252 139.293 159.652 139.018 160.723 138.467C161.794 137.916 162.574 137.151 163.064 136.172C163.569 135.193 163.821 134.076 163.821 132.821C163.821 131.674 163.569 130.595 163.064 129.585C162.574 128.576 161.794 127.765 160.723 127.153C159.652 126.526 158.252 126.212 156.523 126.212H148.629V156H144.2V122.586H156.523C159.048 122.586 161.182 123.022 162.926 123.894C164.67 124.766 165.994 125.975 166.896 127.52C167.799 129.05 168.25 130.802 168.25 132.775C168.25 134.917 167.799 136.746 166.896 138.26C165.994 139.775 164.67 140.93 162.926 141.726C161.182 142.506 159.048 142.896 156.523 142.896Z" fill="#BA7F67"/>
<path d="M211.528 152.397V156H193.834V152.397H211.528ZM194.729 122.586V156H190.3V122.586H194.729ZM209.187 136.952V140.555H193.834V136.952H209.187ZM211.299 122.586V126.212H193.834V122.586H211.299Z" fill="#BA7F67"/>
<path d="M233.463 122.586H244.524C247.034 122.586 249.153 122.968 250.881 123.733C252.625 124.498 253.949 125.631 254.852 127.13C255.77 128.614 256.229 130.442 256.229 132.615C256.229 134.145 255.915 135.545 255.288 136.814C254.676 138.069 253.788 139.14 252.625 140.027C251.478 140.899 250.101 141.55 248.495 141.978L247.255 142.46H236.859L236.813 138.857H244.662C246.253 138.857 247.577 138.582 248.632 138.031C249.688 137.465 250.484 136.707 251.019 135.759C251.555 134.81 251.822 133.762 251.822 132.615C251.822 131.33 251.57 130.205 251.065 129.241C250.56 128.277 249.764 127.535 248.678 127.015C247.607 126.48 246.223 126.212 244.524 126.212H237.892V156H233.463V122.586ZM252.993 156L244.869 140.854L249.481 140.831L257.72 155.725V156H252.993Z" fill="#BA7F67"/>
<path d="M289.386 122.586V156H285.025V122.586H289.386ZM300.126 122.586V126.212H274.308V122.586H300.126Z" fill="#BA7F67"/>
<path d="M326.283 122.586V156H321.854V122.586H326.283Z" fill="#BA7F67"/>
<path d="M372.017 152.397V156H354.323V152.397H372.017ZM355.218 122.586V156H350.788V122.586H355.218ZM369.676 136.952V140.555H354.323V136.952H369.676ZM371.787 122.586V126.212H354.323V122.586H371.787Z" fill="#BA7F67"/>
<path d="M411.76 147.555C411.76 146.774 411.638 146.086 411.393 145.489C411.163 144.877 410.75 144.326 410.154 143.837C409.572 143.347 408.761 142.881 407.721 142.437C406.696 141.993 405.395 141.542 403.82 141.083C402.167 140.593 400.676 140.05 399.344 139.454C398.013 138.842 396.874 138.146 395.925 137.365C394.976 136.585 394.25 135.69 393.745 134.68C393.24 133.67 392.988 132.515 392.988 131.215C392.988 129.914 393.255 128.713 393.791 127.612C394.326 126.51 395.091 125.554 396.086 124.743C397.095 123.917 398.296 123.274 399.689 122.815C401.081 122.356 402.634 122.127 404.347 122.127C406.856 122.127 408.983 122.609 410.727 123.573C412.487 124.521 413.825 125.768 414.743 127.313C415.661 128.843 416.12 130.48 416.12 132.225H411.714C411.714 130.97 411.446 129.861 410.911 128.897C410.375 127.918 409.565 127.153 408.478 126.602C407.392 126.036 406.015 125.753 404.347 125.753C402.772 125.753 401.471 125.99 400.446 126.464C399.421 126.939 398.656 127.581 398.151 128.392C397.662 129.203 397.417 130.129 397.417 131.169C397.417 131.873 397.562 132.515 397.853 133.097C398.159 133.663 398.625 134.191 399.253 134.68C399.895 135.17 400.706 135.621 401.685 136.034C402.68 136.447 403.865 136.845 405.242 137.228C407.14 137.763 408.777 138.36 410.154 139.018C411.53 139.675 412.663 140.417 413.55 141.244C414.453 142.055 415.118 142.98 415.547 144.021C415.99 145.046 416.212 146.208 416.212 147.509C416.212 148.87 415.937 150.102 415.386 151.204C414.835 152.305 414.047 153.246 413.022 154.026C411.997 154.807 410.766 155.411 409.327 155.839C407.905 156.252 406.313 156.459 404.554 156.459C403.009 156.459 401.486 156.245 399.987 155.816C398.503 155.388 397.149 154.745 395.925 153.889C394.716 153.032 393.745 151.976 393.01 150.722C392.291 149.452 391.932 147.983 391.932 146.315H396.338C396.338 147.463 396.56 148.45 397.004 149.276C397.447 150.087 398.052 150.76 398.817 151.295C399.597 151.831 400.477 152.229 401.456 152.489C402.45 152.734 403.483 152.856 404.554 152.856C406.099 152.856 407.407 152.642 408.478 152.213C409.549 151.785 410.36 151.173 410.911 150.377C411.477 149.582 411.76 148.641 411.76 147.555Z" fill="#BA7F67"/>
</svg>
